<?xml version="1.0" encoding="UTF-8"?>
<svg width="30px" height="30px" viewBox="0 0 30 30" version="1.1" xmlns="http://www.w3.org/2000/svg" xmlns:xlink="http://www.w3.org/1999/xlink">
    <!-- Generator: Sketch 60.1 (88133) - https://sketch.com -->
    <title>代理赚钱</title>
    <desc>Created with Sketch.</desc>
    <g id="页面-1" stroke="none" stroke-width="1" fill="none" fill-rule="evenodd">
        <g id="个人模块" transform="translate(-177.000000, -51.000000)">
            <circle id="椭圆形备份-5" stroke="#BCBABA" stroke-width="0.6" cx="192" cy="66" r="14"></circle>
            <g id="代理" transform="translate(182.000000, 56.000000)" fill-rule="nonzero">
                <rect id="矩形" fill="#595959" opacity="0" x="0" y="0" width="20" height="20"></rect>
                <path d="M6.55555555,18.5444445 L3.22222223,18.5444445 C2.40555557,18.5444445 1.74074074,17.9368709 1.74074074,17.1905202 L1.74074074,3.89836872 C1.74074074,3.15201798 2.40555557,2.54444445 3.22222223,2.54444445 L15.2222222,2.54444445 C16.0388889,2.54444445 16.7037037,3.15201798 16.7037037,3.89836872 L16.7037037,7.80274782 C16.7037037,8.0836871 16.4555556,8.31046941 16.1481481,8.31046941 C15.8407407,8.31046941 15.5925926,8.0836871 15.5925926,7.80274782 L15.5925926,3.89836872 C15.5925926,3.71220413 15.4259259,3.55988765 15.2222222,3.55988765 L3.22222223,3.55988765 C3.01851852,3.55988765 2.85185186,3.71220413 2.85185186,3.89836872 L2.85185186,17.1905202 C2.85185186,17.3766848 3.01851852,17.5290013 3.22222223,17.5290013 L6.55555555,17.5290013 C6.86296295,17.5290013 7.11111109,17.7557836 7.11111111,18.0367228 C7.11111113,18.3176621 6.86296297,18.5444445 6.55555555,18.5444445 Z" id="路径" fill="#686868"></path>
                <path d="M13.5555555,14.9648148 C12.0185185,14.9648148 10.7666667,13.712963 10.7666667,12.1759259 C10.7666667,10.6388889 12.0166667,9.38518518 13.5555555,9.38518518 C15.0944444,9.38518518 16.3444445,10.637037 16.3444445,12.1740741 C16.3444445,13.7111111 15.0925926,14.9648148 13.5555555,14.9648148 Z M13.5555555,10.4962963 C12.6296296,10.4962963 11.8777778,11.2481481 11.8777778,12.1740741 C11.8777778,13.1 12.6296296,13.8518519 13.5555555,13.8518519 C14.4814815,13.8518519 15.2333333,13.1 15.2333333,12.1740741 C15.2333333,11.2481482 14.4814815,10.4962963 13.5555555,10.4962963 Z" id="形状" fill="#686868"></path>
                <path d="M8.75925926,17.2425926 C8.63518518,17.2425926 8.50925926,17.2018519 8.40555555,17.1148148 C8.16851852,16.9203704 8.13518518,16.5685185 8.32962963,16.3333333 L10.9759259,13.1259259 C11.1703704,12.8888889 11.5222222,12.8555555 11.7574074,13.05 C11.9944444,13.2444445 12.0277778,13.5962963 11.8333333,13.8314815 L9.18888889,17.0407407 C9.07777777,17.1740741 8.92037037,17.2425926 8.75925926,17.2425926 L8.75925926,17.2425926 Z M11.4,18.8814815 C11.3296296,18.8814815 11.2592593,18.8685185 11.1888889,18.8407407 C10.9055555,18.7240741 10.7685185,18.4 10.8851852,18.1166667 L12.4740741,14.2407407 C12.5907407,13.9574074 12.9148148,13.8203704 13.1981481,13.937037 C13.4814815,14.0537037 13.6185185,14.3777778 13.5018519,14.6611111 L11.912963,18.537037 C11.8259259,18.7518519 11.6185185,18.8814815 11.4,18.8814815 L11.4,18.8814815 Z" id="形状" fill="#686868"></path>
                <path d="M11.3944445,18.8888889 C11.1777778,18.8888889 10.9722222,18.7611111 10.8833333,18.55 L10.1981481,16.9296296 C10.0777778,16.6462963 10.2111111,16.3203704 10.4925926,16.2018519 C10.7759259,16.0814815 11.1018519,16.2148148 11.2203704,16.4962963 L11.9055555,18.1166667 C12.0259259,18.4 11.8925926,18.7259259 11.6111111,18.8444445 C11.5407407,18.8740741 11.4666667,18.8888889 11.3944445,18.8888889 L11.3944445,18.8888889 Z" id="路径" fill="#686868"></path>
                <path d="M10.7092593,17.2685185 L8.86296297,17.2685185 C8.55555557,17.2685185 8.3074074,17.0203704 8.3074074,16.712963 C8.3074074,16.4055556 8.55555555,16.1574074 8.86296297,16.1574074 L10.7092593,16.1574074 C11.0166667,16.1574074 11.2648148,16.4055555 11.2648148,16.712963 C11.2648148,17.0203704 11.0166667,17.2685185 10.7092593,17.2685185 L10.7092593,17.2685185 Z M18.0944445,17.2425926 C17.9351852,17.2425926 17.7759259,17.1740741 17.6648148,17.0407407 L15.0203704,13.8333333 C14.8259259,13.5962963 14.8592593,13.2462963 15.0962963,13.0518519 C15.3333333,12.8574074 15.6833333,12.8907407 15.8777778,13.1277778 L18.5222222,16.3333333 C18.7166667,16.5703704 18.6833333,16.9203704 18.4462963,17.1148148 C18.3444444,17.2 18.2185185,17.2425926 18.0944445,17.2425926 L18.0944445,17.2425926 Z M15.4555555,18.8814815 C15.237037,18.8814815 15.0296296,18.7518519 14.9407407,18.537037 L13.3518519,14.6611111 C13.2351852,14.3777778 13.3722222,14.0518519 13.6555555,13.937037 C13.9388889,13.8203704 14.2648148,13.9574074 14.3796296,14.2407407 L15.9685185,18.1166667 C16.0851852,18.4 15.9481481,18.7259259 15.6648148,18.8407407 C15.5962963,18.8685185 15.5259259,18.8814815 15.4555555,18.8814815 L15.4555555,18.8814815 Z" id="形状" fill="#686868"></path>
                <path d="M15.4592593,18.8888889 C15.387037,18.8888889 15.312963,18.8740741 15.2425926,18.8444445 C14.9592593,18.7240741 14.8277778,18.3981482 14.9481481,18.1166667 L15.6333333,16.4962963 C15.7537037,16.2129629 16.0796296,16.0814815 16.3611111,16.2018519 C16.6444445,16.3222222 16.7759259,16.6481481 16.6555555,16.9296296 L15.9703704,18.55 C15.8814815,18.7611111 15.6759259,18.8888889 15.4592593,18.8888889 L15.4592593,18.8888889 Z" id="路径" fill="#686868"></path>
                <path d="M17.9907407,17.2685185 L16.1444445,17.2685185 C15.8370371,17.2685185 15.5888889,17.0203704 15.5888889,16.712963 C15.5888889,16.4055556 15.837037,16.1574074 16.1444445,16.1574074 L17.9907407,16.1574074 C18.2981481,16.1574074 18.5462963,16.4055555 18.5462963,16.712963 C18.5462963,17.0203704 18.2981481,17.2685185 17.9907407,17.2685185 L17.9907407,17.2685185 Z M13.2481481,6.73148148 L5.17037037,6.73148148 C4.86296297,6.73148148 4.61481482,6.48333334 4.61481482,6.17592592 C4.61481482,5.8685185 4.86296297,5.62037037 5.17037037,5.62037037 L13.2462963,5.62037037 C13.5537037,5.62037037 13.8018519,5.86851852 13.8018519,6.17592592 C13.8018519,6.48333332 13.5537037,6.73148148 13.2481481,6.73148148 L13.2481481,6.73148148 Z M9.78703703,10.1925926 L5.17037037,10.1925926 C4.86296297,10.1925926 4.61481482,9.94444445 4.61481482,9.63703703 C4.61481482,9.32962961 4.86296297,9.08148148 5.17037037,9.08148148 L9.78518518,9.08148148 C10.0925926,9.08148148 10.3407407,9.32962963 10.3407407,9.63703703 C10.3407407,9.94444443 10.0925926,10.1925926 9.78703703,10.1925926 L9.78703703,10.1925926 Z" id="形状" fill="#686868"></path>
                <path d="M8.40185186,13.6537037 L5.17037037,13.6537037 C4.86296297,13.6537037 4.61481482,13.4055556 4.61481482,13.0981481 C4.61481482,12.7907407 4.86296297,12.5425926 5.17037037,12.5425926 L8.40185186,12.5425926 C8.70925926,12.5425926 8.9574074,12.7907407 8.9574074,13.0981481 C8.9574074,13.4055555 8.70925926,13.6537037 8.40185186,13.6537037 L8.40185186,13.6537037 Z" id="路径" fill="#686868"></path>
            </g>
            <g id="编组-3"></g>
        </g>
    </g>
</svg>